<?xml version="1.0" standalone="no"?>
<!DOCTYPE svg PUBLIC "-//W3C//DTD SVG 20010904//EN"
 "http://www.w3.org/TR/2001/REC-SVG-20010904/DTD/svg10.dtd">
<svg version="1.0" xmlns="http://www.w3.org/2000/svg"
 width="24.000000pt" height="25.000000pt" viewBox="0 0 1024.000000 1000.000000"
 preserveAspectRatio="xMidYMid meet">

<g transform="translate(0.000000,1000.000000) scale(0.100000,-0.100000)" fill="#000000" stroke="none">
<path d="M4520 9989 c-114 -13 -347 -65 -305 -68 74 -6 229 -43 248 -60 4 -4
-23 -4 -60 0 -138 16 -414 10 -535 -10 -238 -41 -459 -142 -682 -310 -85 -64
-306 -260 -306 -271 0 -4 44 22 98 57 114 76 267 152 372 186 138 45 142 43
40 -27 -52 -36 -171 -127 -265 -202 -93 -75 -231 -183 -305 -239 -120 -90
-268 -230 -257 -241 2 -2 29 7 59 21 75 34 200 65 265 65 l55 0 -75 -50 c-140
-93 -265 -254 -322 -413 -42 -116 -43 -112 27 -59 57 42 153 90 163 80 2 -2
-12 -43 -31 -91 -45 -113 -80 -270 -95 -425 -15 -158 -6 -560 16 -742 48 -394
152 -827 270 -1125 4 -11 -18 8 -50 43 -71 77 -116 102 -187 102 -101 -1 -166
-49 -210 -157 -21 -53 -23 -73 -22 -238 0 -196 16 -317 74 -545 88 -347 185
-580 275 -659 81 -70 179 -95 270 -67 27 8 53 12 57 8 4 -4 25 -119 47 -257
82 -508 100 -582 169 -705 36 -65 124 -161 215 -233 26 -21 56 -56 67 -77 73
-142 20 -687 -98 -1020 l-27 -75 -95 -47 c-127 -63 -358 -168 -1095 -498
-1456 -653 -1699 -767 -1855 -878 -185 -131 -304 -320 -390 -621 -17 -58 -33
-114 -36 -123 -5 -17 243 -18 5115 -18 3111 0 5121 4 5121 9 0 5 -15 63 -34
128 -66 230 -158 405 -276 523 -151 153 -243 200 -1495 762 -876 393 -1407
635 -1537 698 l-127 62 -21 56 c-84 224 -147 616 -138 856 6 163 19 190 134
290 112 97 147 141 195 241 52 108 79 221 143 603 29 177 55 325 58 327 2 2
26 -2 53 -10 101 -31 187 -10 270 67 45 41 67 72 110 162 84 172 163 430 215
706 31 163 39 420 16 524 -30 134 -107 206 -222 206 -75 0 -134 -34 -196 -114
-23 -30 -44 -54 -45 -52 -2 2 4 20 13 42 41 96 118 344 159 509 46 185 84 403
107 605 19 177 17 618 -5 759 -33 210 -90 351 -180 442 l-50 51 44 -7 c101
-15 226 -63 272 -103 26 -23 29 -11 11 49 -42 144 -140 268 -261 332 -67 35
-68 35 -38 44 46 13 197 9 223 -6 13 -7 26 -10 29 -7 9 9 -110 127 -155 153
-53 31 -153 63 -198 63 -19 0 -34 4 -34 8 0 14 94 99 130 118 23 12 58 18 102
19 38 0 68 3 68 7 0 14 -102 96 -157 126 -92 48 -178 65 -308 59 -60 -3 -119
-8 -131 -12 -17 -5 -22 0 -33 37 -16 55 -80 184 -120 241 -52 76 -130 155
-220 222 -47 36 -90 65 -94 65 -5 0 1 -15 13 -32 28 -43 85 -165 94 -201 6
-26 0 -22 -79 41 -277 225 -729 325 -1370 306 -163 -5 -241 -3 -347 10 -148
17 -193 18 -308 5z"/>
</g>
</svg>
